#tb 0: 100/2397
0,          0,          0,        1,   153600, 0x33759daf
0,          1,          1,        1,   153600, 0x43e0c910
0,          2,          2,        1,   153600, 0x6c75a8f0
0,          3,          3,        1,   153600, 0xaace1255
0,          4,          4,        1,   153600, 0x42d3f439
0,          5,          5,        1,   153600, 0xb225b396
0,          6,          6,        1,   153600, 0xa615221c
0,          7,          7,        1,   153600, 0x5401f5a9
0,          8,          8,        1,   153600, 0xd274cef3
0,          9,          9,        1,   153600, 0x7935f992
0,         10,         10,        1,   153600, 0x7669e7c6
0,         11,         11,        1,   153600, 0x527bd6a1
0,         12,         12,        1,   153600, 0x0f33b2ed
0,         13,         13,        1,   153600, 0xe62ddb32
0,         14,         14,        1,   153600, 0x81541aa2
